<?xml version="1.0" standalone="no"?>
<!DOCTYPE svg PUBLIC "-//W3C//DTD SVG 20010904//EN"
 "http://www.w3.org/TR/2001/REC-SVG-20010904/DTD/svg10.dtd">
<svg version="1.0" xmlns="http://www.w3.org/2000/svg"
 width="260.000000pt" height="260.000000pt" viewBox="0 0 260.000000 260.000000"
 preserveAspectRatio="xMidYMid meet">
<metadata>
Created by potrace 1.11, written by Peter Selinger 2001-2013
</metadata>
<g transform="translate(0.000000,260.000000) scale(0.100000,-0.100000)"
fill="#000000" stroke="none">
<path d="M1045 2580 c-521 -106 -924 -511 -1026 -1033 -24 -124 -26 -357 -4
-478 100 -536 525 -962 1052 -1054 112 -20 354 -20 466 0 390 68 738 326 926
686 100 192 141 365 141 599 0 169 -16 277 -61 412 -150 447 -528 778 -992
869 -131 26 -373 25 -502 -1z m-21 -784 c104 -31 160 -110 160 -226 1 -54 -4
-74 -28 -118 -29 -51 -74 -95 -116 -110 -18 -7 -13 -11 32 -25 98 -31 160
-118 160 -226 1 -116 -48 -203 -143 -256 -54 -30 -55 -30 -241 -33 l-188 -4 0
506 0 506 158 0 c108 0 174 -5 206 -14z m554 -414 c83 -235 152 -433 152 -440
0 -32 18 -5 38 56 12 37 87 234 165 437 l142 370 43 3 43 3 -14 -33 c-8 -18
-96 -246 -197 -505 l-184 -473 -30 0 -31 0 -179 493 c-98 270 -181 498 -184
505 -3 8 9 12 39 12 l44 0 153 -428z"/>
<path d="M730 1549 l0 -191 118 4 c100 3 123 7 158 27 78 44 118 142 94 231
-24 90 -90 120 -264 120 l-106 0 0 -191z"/>
<path d="M730 1081 l0 -211 133 0 c123 0 137 2 185 26 73 36 105 91 105 182 1
148 -73 201 -295 210 l-128 5 0 -212z"/>
</g>
</svg>
