<svg xmlns="http://www.w3.org/2000/svg" viewBox="0 0 64 64">
  <rect width="64" height="64" rx="14" fill="#2E5C39"/>
  <!-- jar lid -->
  <rect x="20" y="12" width="24" height="6" rx="2" fill="#FBFBF8"/>
  <!-- jar body -->
  <path d="M22 18h20a3 3 0 0 1 3 3v20a5 5 0 0 1-5 5H24a5 5 0 0 1-5-5V21a3 3 0 0 1 3-3z"
        fill="none" stroke="#FBFBF8" stroke-width="3"/>
  <!-- contents, low -->
  <path d="M21 36h22v5a4 4 0 0 1-4 4H25a4 4 0 0 1-4-4z" fill="#E7B44A"/>
  <!-- scale platform -->
  <rect x="16" y="50" width="32" height="5" rx="2" fill="#FBFBF8"/>
</svg>
